{
  "accessors": [
    {
      "bufferView": 2,
      "componentType": 5126,
      "count": 844,
      "max": [
        49.906707763671875,
        245.76779174804688,
        2.8439526557922363
      ],
      "min": [
        27.072391510009766,
        84.62772369384766,
        -52.89642333984375
      ],
      "type": "VEC3"
    },
    {
      "bufferView": 2,
      "byteOffset": 10128,
      "componentType": 5126,
      "count": 844,
      "max": [
        0.9960063099861145,
        0.9630734324455261,
        0.9949961304664612
      ],
      "min": [
        -0.9959555268287659,
        -0.9630729556083679,
        -0.9948474764823914
      ],
      "type": "VEC3"
    },
    {
      "bufferView": 1,
      "componentType": 5126,
      "count": 844,
      "max": [
        1.0,
        1.0
      ],
      "min": [
        0.0,
        0.0
      ],
      "type": "VEC2"
    },
    {
      "bufferView": 0,
      "componentType": 5125,
      "count": 4404,
      "type": "SCALAR"
    },
    {
      "bufferView": 2,
      "byteOffset": 20256,
      "componentType": 5126,
      "count": 853,
      "max": [
        -48.289791107177734,
        226.97813415527344,
        42.07524108886719
      ],
      "min": [
        -63.44880294799805,
        79.62506866455078,
        -48.54558181762695
      ],
      "type": "VEC3"
    },
    {
      "bufferView": 2,
      "byteOffset": 30492,
      "componentType": 5126,
      "count": 853,
      "max": [
        0.992729902267456,
        0.9991236329078674,
        0.9657638072967529
      ],
      "min": [
        -0.9927302598953247,
        -0.9944495558738708,
        -0.9657639265060425
      ],
      "type": "VEC3"
    },
    {
      "bufferView": 1,
      "byteOffset": 6752,
      "componentType": 5126,
      "count": 853,
      "max": [
        1.0,
        1.0
      ],
      "min": [
        0.0,
        0.0
      ],
      "type": "VEC2"
    },
    {
      "bufferView": 0,
      "byteOffset": 17616,
      "componentType": 5125,
      "count": 4452,
      "type": "SCALAR"
    },
    {
      "bufferView": 2,
      "byteOffset": 40728,
      "componentType": 5126,
      "count": 1366,
      "max": [
        74.28598022460938,
        100.95246124267578,
        -90.54388427734375
      ],
      "min": [
        50.83884048461914,
        34.86474609375,
        -99.8783187866211
      ],
      "type": "VEC3"
    },
    {
      "bufferView": 2,
      "byteOffset": 57120,
      "componentType": 5126,
      "count": 1366,
      "max": [
        0.9935933947563171,
        0.9985120296478271,
        0.9993506669998169
      ],
      "min": [
        -0.9935922622680664,
        -0.9984988570213318,
        -0.9993470907211304
      ],
      "type": "VEC3"
    },
    {
      "bufferView": 1,
      "byteOffset": 13576,
      "componentType": 5126,
      "count": 1366,
      "max": [
        1.0,
        1.0
      ],
      "min": [
        0.0,
        0.0
      ],
      "type": "VEC2"
    },
    {
      "bufferView": 0,
      "byteOffset": 35424,
      "componentType": 5125,
      "count": 7188,
      "type": "SCALAR"
    },
    {
      "bufferView": 2,
      "byteOffset": 73512,
      "componentType": 5126,
      "count": 142,
      "max": [
        -45.80843734741211,
        232.4545440673828,
        -13.469677925109863
      ],
      "min": [
        -58.297279357910156,
        140.71348571777344,
        -44.36371612548828
      ],
      "type": "VEC3"
    },
    {
      "bufferView": 2,
      "byteOffset": 75216,
      "componentType": 5126,
      "count": 142,
      "max": [
        0.9673376679420471,
        0.9602367281913757,
        0.9504605531692505
      ],
      "min": [
        -0.9673381447792053,
        -0.9653704762458801,
        -0.9504600167274475
      ],
      "type": "VEC3"
    },
    {
      "bufferView": 1,
      "byteOffset": 24504,
      "componentType": 5126,
      "count": 142,
      "max": [
        1.0,
        1.0
      ],
      "min": [
        0.0,
        0.0
      ],
      "type": "VEC2"
    },
    {
      "bufferView": 0,
      "byteOffset": 64176,
      "componentType": 5125,
      "count": 660,
      "type": "SCALAR"
    },
    {
      "bufferView": 2,
      "byteOffset": 76920,
      "componentType": 5126,
      "count": 511,
      "max": [
        -46.00459671020508,
        226.5237579345703,
        20.063859939575195
      ],
      "min": [
        -73.40595245361328,
        54.80012512207031,
        -48.1854362487793
      ],
      "type": "VEC3"
    },
    {
      "bufferView": 2,
      "byteOffset": 83052,
      "componentType": 5126,
      "count": 511,
      "max": [
        0.9942622184753418,
        0.9737188220024109,
        0.9944615960121155
      ],
      "min": [
        -0.9942600727081299,
        -0.9737188220024109,
        -0.9944601655006409
      ],
      "type": "VEC3"
    },
    {
      "bufferView": 1,
      "byteOffset": 25640,
      "componentType": 5126,
      "count": 511,
      "max": [
        1.0,
        1.0
      ],
      "min": [
        0.0,
        0.0
      ],
      "type": "VEC2"
    },
    {
      "bufferView": 0,
      "byteOffset": 66816,
      "componentType": 5125,
      "count": 2628,
      "type": "SCALAR"
    },
    {
      "bufferView": 2,
      "byteOffset": 89184,
      "componentType": 5126,
      "count": 65532,
      "max": [
        95.38153839111328,
        288.2127990722656,
        77.36878204345703
      ],
      "min": [
        -116.8596420288086,
        -3.322530508041382,
        -119.9749984741211
      ],
      "type": "VEC3"
    },
    {
      "bufferView": 2,
      "byteOffset": 875568,
      "componentType": 5126,
      "count": 65532,
      "max": [
        0.9999760389328003,
        0.9999609589576721,
        0.9999117851257324
      ],
      "min": [
        -0.9999194741249084,
        -0.9999779462814331,
        -0.9998947381973267
      ],
      "type": "VEC3"
    },
    {
      "bufferView": 3,
      "componentType": 5126,
      "count": 65532,
      "max": [
        0.9999979138374329,
        0.9999970197677612,
        0.999997615814209,
        1.0
      ],
      "min": [
        -0.9999800324440002,
        -0.9999976754188538,
        -0.9999531507492065,
        -1.0
      ],
      "type": "VEC4"
    },
    {
      "bufferView": 1,
      "byteOffset": 29728,
      "componentType": 5126,
      "count": 65532,
      "max": [
        0.9759699702262878,
        0.9807299971580505
      ],
      "min": [
        0.004999999888241291,
        0.004999995231628418
      ],
      "type": "VEC2"
    },
    {
      "bufferView": 0,
      "byteOffset": 77328,
      "componentType": 5125,
      "count": 289113,
      "type": "SCALAR"
    },
    {
      "bufferView": 2,
      "byteOffset": 1661952,
      "componentType": 5126,
      "count": 45260,
      "max": [
        95.51144409179688,
        288.2127990722656,
        77.26220703125
      ],
      "min": [
        -116.8596420288086,
        -1.6013484001159668,
        -117.31639099121094
      ],
      "type": "VEC3"
    },
    {
      "bufferView": 2,
      "byteOffset": 2205072,
      "componentType": 5126,
      "count": 45260,
      "max": [
        0.9999855756759644,
        0.9999228715896606,
        0.9999560713768005
      ],
      "min": [
        -0.9999194741249084,
        -0.9999779462814331,
        -0.9998927116394043
      ],
      "type": "VEC3"
    },
    {
      "bufferView": 3,
      "byteOffset": 1048512,
      "componentType": 5126,
      "count": 45260,
      "max": [
        0.9999979734420776,
        0.9999970197677612,
        0.9999567270278931,
        1.0
      ],
      "min": [
        -0.9999880790710449,
        -0.9999988079071045,
        -0.9999760389328003,
        -1.0
      ],
      "type": "VEC4"
    },
    {
      "bufferView": 1,
      "byteOffset": 553984,
      "componentType": 5126,
      "count": 45260,
      "max": [
        0.9868299961090088,
        0.9950000047683716
      ],
      "min": [
        0.004999999888241291,
        0.004999995231628418
      ],
      "type": "VEC2"
    },
    {
      "bufferView": 0,
      "byteOffset": 1233780,
      "componentType": 5125,
      "count": 138372,
      "type": "SCALAR"
    }
  ],
  "asset": {
    "extras": {
      "author": "nataliedesign (https://sketchfab.com/nataliedesign)",
      "license": "CC-BY-4.0 (http://creativecommons.org/licenses/by/4.0/)",
      "source": "https://sketchfab.com/3d-models/bean-bot-9b1c86da128147e59bdbb9092ad40d2e",
      "title": "Bean Bot"
    },
    "generator": "Sketchfab-12.67.0",
    "version": "2.0"
  },
  "bufferViews": [
    {
      "buffer": 0,
      "byteLength": 1787268,
      "name": "floatBufferViews",
      "target": 34963
    },
    {
      "buffer": 0,
      "byteLength": 916064,
      "byteOffset": 1787268,
      "byteStride": 8,
      "name": "floatBufferViews",
      "target": 34962
    },
    {
      "buffer": 0,
      "byteLength": 2748192,
      "byteOffset": 2703332,
      "byteStride": 12,
      "name": "floatBufferViews",
      "target": 34962
    },
    {
      "buffer": 0,
      "byteLength": 1772672,
      "byteOffset": 5451524,
      "byteStride": 16,
      "name": "floatBufferViews",
      "target": 34962
    }
  ],
  "buffers": [
    {
      "byteLength": 7224196,
      "uri": "scene.bin"
    }
  ],
  "extensionsRequired": [
    "KHR_materials_pbrSpecularGlossiness"
  ],
  "extensionsUsed": [
    "KHR_materials_pbrSpecularGlossiness"
  ],
  "images": [
    {
      "uri": "textures/BeanBot_diffuse.jpeg"
    },
    {
      "uri": "textures/BeanBot_specularGlossiness.png"
    },
    {
      "uri": "textures/BeanBot_emissive.jpeg"
    },
    {
      "uri": "textures/BeanBot_normal.png"
    },
    {
      "uri": "textures/BeanBot_occlusion.png"
    }
  ],
  "materials": [
    {
      "doubleSided": true,
      "extensions": {
        "KHR_materials_pbrSpecularGlossiness": {
          "diffuseFactor": [
            0.0758955803843573,
            0.0758955803843573,
            0.0758955803843573,
            1.0
          ],
          "glossinessFactor": 0.04756828460010884,
          "specularFactor": [
            0.0,
            0.0,
            0.0
          ]
        }
      },
      "name": "Grey"
    },
    {
      "doubleSided": true,
      "extensions": {
        "KHR_materials_pbrSpecularGlossiness": {
          "diffuseFactor": [
            0.049438083164474164,
            0.1155394935966534,
            0.2482802702197365,
            1.0
          ],
          "glossinessFactor": 0.04756828460010884,
          "specularFactor": [
            0.0,
            0.0,
            0.0
          ]
        }
      },
      "name": "Blue"
    },
    {
      "doubleSided": true,
      "extensions": {
        "KHR_materials_pbrSpecularGlossiness": {
          "diffuseFactor": [
            0.13163126575231088,
            0.11187686554984386,
            0.09982292830372434,
            1.0
          ],
          "glossinessFactor": 0.04756828460010884,
          "specularFactor": [
            0.0,
            0.0,
            0.0
          ]
        }
      },
      "name": "Brown"
    },
    {
      "doubleSided": true,
      "extensions": {
        "KHR_materials_pbrSpecularGlossiness": {
          "diffuseFactor": [
            0.12964066145826963,
            0.3863840971211095,
            0.08441370644395042,
            1.0
          ],
          "glossinessFactor": 0.04756828460010884,
          "specularFactor": [
            0.0,
            0.0,
            0.0
          ]
        }
      },
      "name": "Green"
    },
    {
      "doubleSided": true,
      "extensions": {
        "KHR_materials_pbrSpecularGlossiness": {
          "diffuseFactor": [
            0.5054543983643133,
            0.08911103286230218,
            0.08911103286230218,
            1.0
          ],
          "glossinessFactor": 0.04756828460010884,
          "specularFactor": [
            0.0,
            0.0,
            0.0
          ]
        }
      },
      "name": "material"
    },
    {
      "doubleSided": true,
      "emissiveFactor": [
        1.0,
        1.0,
        1.0
      ],
      "emissiveTexture": {
        "index": 2
      },
      "extensions": {
        "KHR_materials_pbrSpecularGlossiness": {
          "diffuseFactor": [
            1.0,
            1.0,
            1.0,
            1.0
          ],
          "diffuseTexture": {
            "index": 0
          },
          "glossinessFactor": 1.0,
          "specularFactor": [
            1.0,
            1.0,
            1.0
          ],
          "specularGlossinessTexture": {
            "index": 1
          }
        }
      },
      "name": "BeanBot",
      "normalTexture": {
        "index": 3
      },
      "occlusionTexture": {
        "index": 4
      }
    }
  ],
  "meshes": [
    {
      "name": "Sweep_Grey_0",
      "primitives": [
        {
          "attributes": {
            "NORMAL": 1,
            "POSITION": 0,
            "TEXCOORD_0": 2
          },
          "indices": 3,
          "material": 0,
          "mode": 4
        }
      ]
    },
    {
      "name": "Sweep_1_Blue_0",
      "primitives": [
        {
          "attributes": {
            "NORMAL": 5,
            "POSITION": 4,
            "TEXCOORD_0": 6
          },
          "indices": 7,
          "material": 1,
          "mode": 4
        }
      ]
    },
    {
      "name": "Sweep_2_Brown_0",
      "primitives": [
        {
          "attributes": {
            "NORMAL": 9,
            "POSITION": 8,
            "TEXCOORD_0": 10
          },
          "indices": 11,
          "material": 2,
          "mode": 4
        }
      ]
    },
    {
      "name": "Sweep_3_Green_0",
      "primitives": [
        {
          "attributes": {
            "NORMAL": 13,
            "POSITION": 12,
            "TEXCOORD_0": 14
          },
          "indices": 15,
          "material": 3,
          "mode": 4
        }
      ]
    },
    {
      "name": "Sweep_4_Red_0",
      "primitives": [
        {
          "attributes": {
            "NORMAL": 17,
            "POSITION": 16,
            "TEXCOORD_0": 18
          },
          "indices": 19,
          "material": 4,
          "mode": 4
        }
      ]
    },
    {
      "name": "Group24954_1_BeanBot_0",
      "primitives": [
        {
          "attributes": {
            "NORMAL": 21,
            "POSITION": 20,
            "TANGENT": 22,
            "TEXCOORD_0": 23
          },
          "indices": 24,
          "material": 5,
          "mode": 4
        }
      ]
    },
    {
      "name": "Group24954_1_BeanBot_0",
      "primitives": [
        {
          "attributes": {
            "NORMAL": 26,
            "POSITION": 25,
            "TANGENT": 27,
            "TEXCOORD_0": 28
          },
          "indices": 29,
          "material": 5,
          "mode": 4
        }
      ]
    }
  ],
  "nodes": [
    {
      "children": [
        1
      ],
      "matrix": [
        1.0,
        0.0,
        0.0,
        0.0,
        0.0,
        2.220446049250313e-16,
        -1.0,
        0.0,
        0.0,
        1.0,
        2.220446049250313e-16,
        0.0,
        0.0,
        0.0,
        0.0,
        1.0
      ],
      "name": "Sketchfab_model"
    },
    {
      "children": [
        2
      ],
      "matrix": [
        1.0,
        0.0,
        0.0,
        0.0,
        0.0,
        0.0,
        1.0,
        0.0,
        0.0,
        -1.0,
        0.0,
        0.0,
        0.0,
        0.0,
        0.0,
        1.0
      ],
      "name": "53767c7523294fe4af853e630c706e4d.fbx"
    },
    {
      "children": [
        3,
        5,
        7,
        9,
        11,
        13
      ],
      "name": "RootNode"
    },
    {
      "children": [
        4
      ],
      "name": "Sweep"
    },
    {
      "mesh": 0,
      "name": "Sweep_Grey_0"
    },
    {
      "children": [
        6
      ],
      "name": "Sweep_1"
    },
    {
      "mesh": 1,
      "name": "Sweep_1_Blue_0"
    },
    {
      "children": [
        8
      ],
      "name": "Sweep_2"
    },
    {
      "mesh": 2,
      "name": "Sweep_2_Brown_0"
    },
    {
      "children": [
        10
      ],
      "name": "Sweep_3"
    },
    {
      "mesh": 3,
      "name": "Sweep_3_Green_0"
    },
    {
      "children": [
        12
      ],
      "name": "Sweep_4"
    },
    {
      "mesh": 4,
      "name": "Sweep_4_Red_0"
    },
    {
      "children": [
        14,
        15
      ],
      "matrix": [
        1.0,
        0.0,
        0.0,
        0.0,
        0.0,
        1.0,
        0.0,
        0.0,
        0.0,
        0.0,
        1.0,
        0.0,
        -0.01776217110455036,
        0.7201399803161621,
        0.5055536031723022,
        1.0
      ],
      "name": "Group24954_1"
    },
    {
      "mesh": 5,
      "name": "Group24954_1_BeanBot_0"
    },
    {
      "mesh": 6,
      "name": "Group24954_1_BeanBot_0"
    }
  ],
  "samplers": [
    {
      "magFilter": 9729,
      "minFilter": 9987,
      "wrapS": 10497,
      "wrapT": 10497
    }
  ],
  "scene": 0,
  "scenes": [
    {
      "name": "Sketchfab_Scene",
      "nodes": [
        0
      ]
    }
  ],
  "textures": [
    {
      "sampler": 0,
      "source": 0
    },
    {
      "sampler": 0,
      "source": 1
    },
    {
      "sampler": 0,
      "source": 2
    },
    {
      "sampler": 0,
      "source": 3
    },
    {
      "sampler": 0,
      "source": 4
    }
  ]
}
